<?xml version="1.0" encoding="UTF-8" ?>
<!DOCTYPE svg PUBLIC "-//W3C//DTD SVG1.1/EN" "http://www.w3.org/Graphics/SVG/1.1/DTD/svg11.dtd">
<svg width="500" height="500" xmlns="http://www.w3.org/2000/svg" xmlns:xlink="http://www.w3.org/1999/xlink"
>
    <title>Cat</title>
    <desc>Stick Figure of a Cat</desc>
    <defs>
        <g id="g1">
            <!--<circle cx="80" cy="90" r="50" style="stroke: black; fill: none;"></circle>-->
            <!--<circle cx="60" cy="80" r="5" stroke="black" fill="#339933"></circle>-->
            <!--<circle cx="100" cy="80" r="5" stroke="black" fill="#339933"></circle>-->
            <!--<g id="whiskers">-->
                <!--<line x1="90" y1="90" x2="140" y2="80" style="stroke: black;"/>-->
                <!--<line x1="90" y1="90" x2="135" y2="100" style="stroke: black;"/>-->
            <!--</g>-->
            <!--<use xlink:href="#whiskers" transform="scale(-1 1) translate(-160 0)"/>-->
            <!--<polyline points="40 60 60 0 80 40 100 0 120 60" fill="none" stroke="black"/>-->
            <!--<polyline points="50 110 60 120 100 120 110 110" fill="none" stroke="black" />-->
            <!--<path style="stroke: black; fill: #ffcccc" d="M90 85 L70 85 A5 8 0 0 0 90 85" />-->
            <!--<text x="65" y="158" style="font-family: sans-serif; font-size: 14pt; stroke: none; fill: black">Cat</text>-->
            <path d="M80,20 L20,80 L80,140" style="fill:none; stroke-width: 20px;stroke: #BD806E;" transform="translate(20)"/>
        </g>

    </defs>

    <use xlink:href="#g1"/>
    <use xlink:href="#g1" transform="translate(160)"/>

</svg>