<?xml version="1.0" encoding="UTF-8" ?>
<!DOCTYPE svg PUBLIC "-//W3C//DTD SVG1.1/EN" "http://www.w3.org/Graphics/SVG/1.1/DTD/svg11.dtd">
<svg
        width="250px"
        height="250px"
        viewBox="0 0 250 250"
        xmlns="http://www.w3.org/2000/svg"
        xmlns:xlink="http://www.w3.org/1999/xlink"
>
    <title>SVG Analog Clock</title>
    <g id="clock">
        <circle id="face" cx="125" cy="125" r="100" style="fill:white;stroke:black"/>
        <g id="ticks" transform="translate(125, 125)">
            <path d="M95,0 L100,-5 L100,5 z" transform="rotate(30)"/>
            <path d="M95,0 L100,-5 L100,5 z" transform="rotate(60)"/>
            <path d="M95,0 L100,-5 L100,5 z" transform="rotate(90)"/>
            <path d="M95,0 L100,-5 L100,5 z" transform="rotate(30)"/>
            <path d="M95,0 L100,-5 L100,5 z" transform="rotate(120)"/>
            <path d="M95,0 L100,-5 L100,5 z" transform="rotate(150)"/>
            <path d="M95,0 L100,-5 L100,5 z" transform="rotate(180)"/>
            <path d="M95,0 L100,-5 L100,5 z" transform="rotate(210)"/>
            <path d="M95,0 L100,-5 L100,5 z" transform="rotate(240)"/>
            <path d="M95,0 L100,-5 L100,5 z" transform="rotate(270)"/>
            <path d="M95,0 L100,-5 L100,5 z" transform="rotate(300)"/>
            <path d="M95,0 L100,-5 L100,5 z" transform="rotate(330)"/>
            <path d="M95,0 L100,-5 L100,5 z" transform="rotate(360)"/>
        </g>

        <g id="hands" style="stroke:black;stroke-width:5px;stroke-linecap:round;">
            <path id="hour" d="M125,125 L125,75" transform="rotate(0,125,125)" />
            <path id="minute" d="M125,125 L125,45" transform="rotate(0,125,125)" />
            <path id="second" d="M125,125 L125,30" transform="rotate(0,125,125)"  style="stroke:red;stroke-width:2px"/>
        </g>

        <circle id="knob" cx="125" cy="125" r="6" style="fill:#333;"/>
    </g>
</svg>